<?xml version="1.0" encoding="UTF-8" standalone="no"?><svg xmlns="http://www.w3.org/2000/svg" xmlns:xlink="http://www.w3.org/1999/xlink" contentScriptType="application/ecmascript" contentStyleType="text/css" height="368px" preserveAspectRatio="none" style="width:1759px;height:368px;background:#FFFFFF;" version="1.1" viewBox="0 0 1759 368" width="1759px" zoomAndPan="magnify"><defs><filter height="300%" id="f6r1z2rmmz4n6" width="300%" x="-1" y="-1"><feGaussianBlur result="blurOut" stdDeviation="2.0"/><feColorMatrix in="blurOut" result="blurOut2" type="matrix" values="0 0 0 0 0 0 0 0 0 0 0 0 0 0 0 0 0 0 .4 0"/><feOffset dx="4.0" dy="4.0" in="blurOut2" result="blurOut3"/><feBlend in="SourceGraphic" in2="blurOut3" mode="normal"/></filter></defs><g><!--MD5=[a22f837d8ceaa7654d5241ae8b3cb7d5]
class OutOfBoundsError--><rect codeLine="1" fill="#FEFECE" filter="url(#f6r1z2rmmz4n6)" height="48" id="OutOfBoundsError" style="stroke:#A80036;stroke-width:1.5;" width="142" x="699" y="262"/><ellipse cx="714" cy="278" fill="#ADD1B2" rx="11" ry="11" style="stroke:#A80036;stroke-width:1.0;"/><path d="M716.3438,273.6719 C715.4063,273.2344 714.8125,273.0938 713.9375,273.0938 C711.3125,273.0938 709.3125,275.1719 709.3125,277.8906 L709.3125,279.0156 C709.3125,281.5938 711.4219,283.4844 714.3125,283.4844 C715.5313,283.4844 716.6875,283.1875 717.4375,282.6406 C718.0156,282.2344 718.3438,281.7813 718.3438,281.3906 C718.3438,280.9375 717.9531,280.5469 717.4844,280.5469 C717.2656,280.5469 717.0625,280.625 716.875,280.8125 C716.4219,281.2969 716.4219,281.2969 716.2344,281.3906 C715.8125,281.6563 715.125,281.7813 714.3594,281.7813 C712.3125,281.7813 711.0156,280.6875 711.0156,278.9844 L711.0156,277.8906 C711.0156,276.1094 712.2656,274.7969 714,274.7969 C714.5781,274.7969 715.1875,274.9531 715.6563,275.2031 C716.1406,275.4844 716.3125,275.7031 716.4063,276.1094 C716.4688,276.5156 716.5,276.6406 716.6406,276.7656 C716.7813,276.9063 717.0156,277.0156 717.2344,277.0156 C717.5,277.0156 717.7656,276.875 717.9375,276.6563 C718.0469,276.5 718.0781,276.3125 718.0781,275.8906 L718.0781,274.4688 C718.0781,274.0313 718.0625,273.9063 717.9688,273.75 C717.8125,273.4844 717.5313,273.3438 717.2344,273.3438 C716.9375,273.3438 716.7344,273.4375 716.5156,273.75 L716.3438,273.6719 Z " fill="#000000"/><text fill="#000000" font-family="sans-serif" font-size="12" lengthAdjust="spacing" textLength="110" x="728" y="282.1543">OutOfBoundsError</text><line style="stroke:#A80036;stroke-width:1.5;" x1="700" x2="840" y1="294" y2="294"/><line style="stroke:#A80036;stroke-width:1.5;" x1="700" x2="840" y1="302" y2="302"/><!--MD5=[b8cfd8c4119a3b0a7a46bfc5fc780f85]
class Error--><rect fill="#FEFECE" filter="url(#f6r1z2rmmz4n6)" height="48" id="Error" style="stroke:#A80036;stroke-width:1.5;" width="62" x="739" y="58"/><ellipse cx="754" cy="74" fill="#ADD1B2" rx="11" ry="11" style="stroke:#A80036;stroke-width:1.0;"/><path d="M756.3438,69.6719 C755.4063,69.2344 754.8125,69.0938 753.9375,69.0938 C751.3125,69.0938 749.3125,71.1719 749.3125,73.8906 L749.3125,75.0156 C749.3125,77.5938 751.4219,79.4844 754.3125,79.4844 C755.5313,79.4844 756.6875,79.1875 757.4375,78.6406 C758.0156,78.2344 758.3438,77.7813 758.3438,77.3906 C758.3438,76.9375 757.9531,76.5469 757.4844,76.5469 C757.2656,76.5469 757.0625,76.625 756.875,76.8125 C756.4219,77.2969 756.4219,77.2969 756.2344,77.3906 C755.8125,77.6563 755.125,77.7813 754.3594,77.7813 C752.3125,77.7813 751.0156,76.6875 751.0156,74.9844 L751.0156,73.8906 C751.0156,72.1094 752.2656,70.7969 754,70.7969 C754.5781,70.7969 755.1875,70.9531 755.6563,71.2031 C756.1406,71.4844 756.3125,71.7031 756.4063,72.1094 C756.4688,72.5156 756.5,72.6406 756.6406,72.7656 C756.7813,72.9063 757.0156,73.0156 757.2344,73.0156 C757.5,73.0156 757.7656,72.875 757.9375,72.6563 C758.0469,72.5 758.0781,72.3125 758.0781,71.8906 L758.0781,70.4688 C758.0781,70.0313 758.0625,69.9063 757.9688,69.75 C757.8125,69.4844 757.5313,69.3438 757.2344,69.3438 C756.9375,69.3438 756.7344,69.4375 756.5156,69.75 L756.3438,69.6719 Z " fill="#000000"/><text fill="#000000" font-family="sans-serif" font-size="12" lengthAdjust="spacing" textLength="30" x="768" y="78.1543">Error</text><line style="stroke:#A80036;stroke-width:1.5;" x1="740" x2="800" y1="90" y2="90"/><line style="stroke:#A80036;stroke-width:1.5;" x1="740" x2="800" y1="98" y2="98"/><!--MD5=[18e4d9ca2a6cdced7b66e5fef94ef6f6]
class Tile--><rect codeLine="2" fill="#FEFECE" filter="url(#f6r1z2rmmz4n6)" height="86.4141" id="Tile" style="stroke:#A80036;stroke-width:1.5;" width="135" x="1046.5" y="39"/><ellipse cx="1099.75" cy="55" fill="#A9DCDF" rx="11" ry="11" style="stroke:#A80036;stroke-width:1.0;"/><path d="M1101.8281,56.8125 L1102.2188,57.7969 L1101.8281,57.7969 C1101.375,57.7969 1101.2656,57.8125 1101.1094,57.9219 C1100.8594,58.0781 1100.7031,58.3594 1100.7031,58.6563 C1100.7031,58.9219 1100.8438,59.1719 1101.0625,59.3281 C1101.2031,59.4531 1101.4063,59.5 1101.8281,59.5 L1104.1875,59.5 C1104.5469,59.5 1104.7656,59.4688 1104.9063,59.375 C1105.1563,59.2344 1105.3125,58.9375 1105.3125,58.6563 C1105.3125,58.375 1105.1719,58.125 1104.9531,57.9688 C1104.7813,57.8281 1104.625,57.7969 1104.1563,57.7969 L1100.7656,49.5938 L1097.0938,49.5938 C1096.6406,49.5938 1096.5156,49.6094 1096.3594,49.7031 C1096.1094,49.875 1095.9531,50.1563 1095.9531,50.4375 C1095.9531,50.7188 1096.0938,50.9688 1096.3125,51.1406 C1096.4844,51.25 1096.6563,51.2813 1097.0938,51.2813 L1098.1719,51.2813 L1095.5313,57.7969 C1095.1094,57.7969 1094.9531,57.8125 1094.7969,57.9219 C1094.5469,58.0781 1094.3906,58.3594 1094.3906,58.6563 C1094.3906,59.2188 1094.7656,59.5 1095.5156,59.5 L1097.7813,59.5 C1098.1406,59.5 1098.3594,59.4688 1098.4844,59.375 C1098.75,59.2344 1098.8906,58.9375 1098.8906,58.6563 C1098.8906,58.375 1098.7656,58.125 1098.5469,57.9531 C1098.375,57.8281 1098.2344,57.7969 1097.7813,57.7969 L1097.3906,57.7969 L1097.7813,56.8125 L1101.8281,56.8125 Z M1101.125,55.1094 L1098.4531,55.1094 L1099.7969,51.8438 L1101.125,55.1094 Z " fill="#000000"/><text fill="#000000" font-family="sans-serif" font-size="12" font-style="italic" lengthAdjust="spacing" textLength="20" x="1120.25" y="59.1543">Tile</text><line style="stroke:#A80036;stroke-width:1.5;" x1="1047.5" x2="1180.5" y1="71" y2="71"/><ellipse cx="1057.5" cy="82" rx="3" ry="3" style="stroke:#038048;stroke-width:1.0;fill:none;"/><text fill="#000000" font-family="sans-serif" font-size="11" font-style="italic" lengthAdjust="spacing" textLength="109" x="1066.5" y="85.2104">isBlocking: boolean</text><ellipse cx="1057.5" cy="94.8047" rx="3" ry="3" style="stroke:#038048;stroke-width:1.0;fill:none;"/><text fill="#000000" font-family="sans-serif" font-size="11" font-style="italic" lengthAdjust="spacing" textLength="99" x="1066.5" y="98.0151">modifier: number</text><ellipse cx="1057.5" cy="107.6094" rx="3" ry="3" style="stroke:#038048;stroke-width:1.0;fill:none;"/><text fill="#000000" font-family="sans-serif" font-size="11" font-style="italic" lengthAdjust="spacing" textLength="68" x="1066.5" y="110.8198">color: string</text><line style="stroke:#A80036;stroke-width:1.5;" x1="1047.5" x2="1180.5" y1="117.4141" y2="117.4141"/><!--MD5=[1f24f7b92150e3316908f7910ce81742]
class Grid--><rect codeLine="7" fill="#FEFECE" filter="url(#f6r1z2rmmz4n6)" height="137.6328" id="Grid" style="stroke:#A80036;stroke-width:1.5;" width="318" x="9" y="13"/><ellipse cx="151.25" cy="29" fill="#ADD1B2" rx="11" ry="11" style="stroke:#A80036;stroke-width:1.0;"/><path d="M153.5938,24.6719 C152.6563,24.2344 152.0625,24.0938 151.1875,24.0938 C148.5625,24.0938 146.5625,26.1719 146.5625,28.8906 L146.5625,30.0156 C146.5625,32.5938 148.6719,34.4844 151.5625,34.4844 C152.7813,34.4844 153.9375,34.1875 154.6875,33.6406 C155.2656,33.2344 155.5938,32.7813 155.5938,32.3906 C155.5938,31.9375 155.2031,31.5469 154.7344,31.5469 C154.5156,31.5469 154.3125,31.625 154.125,31.8125 C153.6719,32.2969 153.6719,32.2969 153.4844,32.3906 C153.0625,32.6563 152.375,32.7813 151.6094,32.7813 C149.5625,32.7813 148.2656,31.6875 148.2656,29.9844 L148.2656,28.8906 C148.2656,27.1094 149.5156,25.7969 151.25,25.7969 C151.8281,25.7969 152.4375,25.9531 152.9063,26.2031 C153.3906,26.4844 153.5625,26.7031 153.6563,27.1094 C153.7188,27.5156 153.75,27.6406 153.8906,27.7656 C154.0313,27.9063 154.2656,28.0156 154.4844,28.0156 C154.75,28.0156 155.0156,27.875 155.1875,27.6563 C155.2969,27.5 155.3281,27.3125 155.3281,26.8906 L155.3281,25.4688 C155.3281,25.0313 155.3125,24.9063 155.2188,24.75 C155.0625,24.4844 154.7813,24.3438 154.4844,24.3438 C154.1875,24.3438 153.9844,24.4375 153.7656,24.75 L153.5938,24.6719 Z " fill="#000000"/><text fill="#000000" font-family="sans-serif" font-size="12" lengthAdjust="spacing" textLength="25" x="171.75" y="33.1543">Grid</text><line style="stroke:#A80036;stroke-width:1.5;" x1="10" x2="326" y1="45" y2="45"/><ellipse cx="20" cy="56" rx="3" ry="3" style="stroke:#038048;stroke-width:1.0;fill:none;"/><text fill="#000000" font-family="sans-serif" font-size="11" lengthAdjust="spacing" textLength="81" x="29" y="59.2104">width: number</text><ellipse cx="20" cy="68.8047" rx="3" ry="3" style="stroke:#038048;stroke-width:1.0;fill:none;"/><text fill="#000000" font-family="sans-serif" font-size="11" lengthAdjust="spacing" textLength="87" x="29" y="72.0151">height: number</text><polygon fill="none" points="20,76.6094,24,80.6094,20,84.6094,16,80.6094" style="stroke:#B38D22;stroke-width:1.0;"/><text fill="#000000" font-family="sans-serif" font-size="11" lengthAdjust="spacing" textLength="60" x="29" y="84.8198">tiles: Tile[]</text><line style="stroke:#A80036;stroke-width:1.5;" x1="10" x2="326" y1="91.4141" y2="91.4141"/><ellipse cx="20" cy="102.4141" fill="#84BE84" rx="3" ry="3" style="stroke:#038048;stroke-width:1.0;"/><text fill="#000000" font-family="sans-serif" font-size="11" lengthAdjust="spacing" textLength="94" x="29" y="105.6245">fill(tile: Tile): this</text><ellipse cx="20" cy="115.2188" fill="#84BE84" rx="3" ry="3" style="stroke:#038048;stroke-width:1.0;"/><text fill="#000000" font-family="sans-serif" font-size="11" lengthAdjust="spacing" textLength="229" x="29" y="118.4292">set(x: number, y: number, tile: Tile): this</text><ellipse cx="20" cy="128.0234" fill="#84BE84" rx="3" ry="3" style="stroke:#038048;stroke-width:1.0;"/><text fill="#000000" font-family="sans-serif" font-size="11" lengthAdjust="spacing" textLength="178" x="29" y="131.2339">get(x: number, y: number): Tile</text><rect fill="#F24D5C" height="6" style="stroke:#C82930;stroke-width:1.0;" width="6" x="17" y="137.8281"/><text fill="#000000" font-family="sans-serif" font-size="11" lengthAdjust="spacing" textLength="292" x="29" y="144.0386">throwOutsideOfBounds(x: number, y: number): void</text><!--MD5=[e6ec308ebdec1d71c3ca17cb8d29ae42]
class GridLoop--><rect codeLine="16" fill="#FEFECE" filter="url(#f6r1z2rmmz4n6)" height="150.4375" id="GridLoop" style="stroke:#A80036;stroke-width:1.5;" width="229" x="362.5" y="7"/><ellipse cx="445.25" cy="23" fill="#ADD1B2" rx="11" ry="11" style="stroke:#A80036;stroke-width:1.0;"/><path d="M447.5938,18.6719 C446.6563,18.2344 446.0625,18.0938 445.1875,18.0938 C442.5625,18.0938 440.5625,20.1719 440.5625,22.8906 L440.5625,24.0156 C440.5625,26.5938 442.6719,28.4844 445.5625,28.4844 C446.7813,28.4844 447.9375,28.1875 448.6875,27.6406 C449.2656,27.2344 449.5938,26.7813 449.5938,26.3906 C449.5938,25.9375 449.2031,25.5469 448.7344,25.5469 C448.5156,25.5469 448.3125,25.625 448.125,25.8125 C447.6719,26.2969 447.6719,26.2969 447.4844,26.3906 C447.0625,26.6563 446.375,26.7813 445.6094,26.7813 C443.5625,26.7813 442.2656,25.6875 442.2656,23.9844 L442.2656,22.8906 C442.2656,21.1094 443.5156,19.7969 445.25,19.7969 C445.8281,19.7969 446.4375,19.9531 446.9063,20.2031 C447.3906,20.4844 447.5625,20.7031 447.6563,21.1094 C447.7188,21.5156 447.75,21.6406 447.8906,21.7656 C448.0313,21.9063 448.2656,22.0156 448.4844,22.0156 C448.75,22.0156 449.0156,21.875 449.1875,21.6563 C449.2969,21.5 449.3281,21.3125 449.3281,20.8906 L449.3281,19.4688 C449.3281,19.0313 449.3125,18.9063 449.2188,18.75 C449.0625,18.4844 448.7813,18.3438 448.4844,18.3438 C448.1875,18.3438 447.9844,18.4375 447.7656,18.75 L447.5938,18.6719 Z " fill="#000000"/><text fill="#000000" font-family="sans-serif" font-size="12" lengthAdjust="spacing" textLength="55" x="465.75" y="27.1543">GridLoop</text><line style="stroke:#A80036;stroke-width:1.5;" x1="363.5" x2="590.5" y1="39" y2="39"/><rect fill="none" height="6" style="stroke:#C82930;stroke-width:1.0;" width="6" x="370.5" y="47"/><text fill="#000000" font-family="sans-serif" font-size="11" lengthAdjust="spacing" textLength="84" x="382.5" y="53.2104">startX: number</text><rect fill="none" height="6" style="stroke:#C82930;stroke-width:1.0;" width="6" x="370.5" y="59.8047"/><text fill="#000000" font-family="sans-serif" font-size="11" lengthAdjust="spacing" textLength="83" x="382.5" y="66.0151">startY: number</text><rect fill="none" height="6" style="stroke:#C82930;stroke-width:1.0;" width="6" x="370.5" y="72.6094"/><text fill="#000000" font-family="sans-serif" font-size="11" lengthAdjust="spacing" textLength="81" x="382.5" y="78.8198">endX: number</text><rect fill="none" height="6" style="stroke:#C82930;stroke-width:1.0;" width="6" x="370.5" y="85.4141"/><text fill="#000000" font-family="sans-serif" font-size="11" lengthAdjust="spacing" textLength="80" x="382.5" y="91.6245">endY: number</text><rect fill="none" height="6" style="stroke:#C82930;stroke-width:1.0;" width="6" x="370.5" y="98.2188"/><text fill="#000000" font-family="sans-serif" font-size="11" lengthAdjust="spacing" textLength="176" x="382.5" y="104.4292">skips: Record&lt;string, boolean&gt;</text><line style="stroke:#A80036;stroke-width:1.5;" x1="363.5" x2="590.5" y1="111.0234" y2="111.0234"/><ellipse cx="373.5" cy="122.0234" fill="#84BE84" rx="3" ry="3" style="stroke:#038048;stroke-width:1.0;"/><text fill="#000000" font-family="sans-serif" font-size="11" lengthAdjust="spacing" textLength="203" x="382.5" y="125.2339">setStart(x: number, y: number): this</text><ellipse cx="373.5" cy="134.8281" fill="#84BE84" rx="3" ry="3" style="stroke:#038048;stroke-width:1.0;"/><text fill="#000000" font-family="sans-serif" font-size="11" lengthAdjust="spacing" textLength="197" x="382.5" y="138.0386">setEnd(x: number, y: number): this</text><ellipse cx="373.5" cy="147.6328" fill="#84BE84" rx="3" ry="3" style="stroke:#038048;stroke-width:1.0;"/><text fill="#000000" font-family="sans-serif" font-size="11" lengthAdjust="spacing" textLength="180" x="382.5" y="150.8433">skip(x: number, y: number): this</text><!--MD5=[5dfe1c7064ec947f42dcf03f2fc7a1cf]
class PathFinding--><rect codeLine="26" fill="#FEFECE" filter="url(#f6r1z2rmmz4n6)" height="150.4375" id="PathFinding" style="stroke:#A80036;stroke-width:1.5;" width="229" x="1451.5" y="7"/><ellipse cx="1525.75" cy="23" fill="#A9DCDF" rx="11" ry="11" style="stroke:#A80036;stroke-width:1.0;"/><path d="M1527.8281,24.8125 L1528.2188,25.7969 L1527.8281,25.7969 C1527.375,25.7969 1527.2656,25.8125 1527.1094,25.9219 C1526.8594,26.0781 1526.7031,26.3594 1526.7031,26.6563 C1526.7031,26.9219 1526.8438,27.1719 1527.0625,27.3281 C1527.2031,27.4531 1527.4063,27.5 1527.8281,27.5 L1530.1875,27.5 C1530.5469,27.5 1530.7656,27.4688 1530.9063,27.375 C1531.1563,27.2344 1531.3125,26.9375 1531.3125,26.6563 C1531.3125,26.375 1531.1719,26.125 1530.9531,25.9688 C1530.7813,25.8281 1530.625,25.7969 1530.1563,25.7969 L1526.7656,17.5938 L1523.0938,17.5938 C1522.6406,17.5938 1522.5156,17.6094 1522.3594,17.7031 C1522.1094,17.875 1521.9531,18.1563 1521.9531,18.4375 C1521.9531,18.7188 1522.0938,18.9688 1522.3125,19.1406 C1522.4844,19.25 1522.6563,19.2813 1523.0938,19.2813 L1524.1719,19.2813 L1521.5313,25.7969 C1521.1094,25.7969 1520.9531,25.8125 1520.7969,25.9219 C1520.5469,26.0781 1520.3906,26.3594 1520.3906,26.6563 C1520.3906,27.2188 1520.7656,27.5 1521.5156,27.5 L1523.7813,27.5 C1524.1406,27.5 1524.3594,27.4688 1524.4844,27.375 C1524.75,27.2344 1524.8906,26.9375 1524.8906,26.6563 C1524.8906,26.375 1524.7656,26.125 1524.5469,25.9531 C1524.375,25.8281 1524.2344,25.7969 1523.7813,25.7969 L1523.3906,25.7969 L1523.7813,24.8125 L1527.8281,24.8125 Z M1527.125,23.1094 L1524.4531,23.1094 L1525.7969,19.8438 L1527.125,23.1094 Z " fill="#000000"/><text fill="#000000" font-family="sans-serif" font-size="12" font-style="italic" lengthAdjust="spacing" textLength="72" x="1546.25" y="27.1543">PathFinding</text><line style="stroke:#A80036;stroke-width:1.5;" x1="1452.5" x2="1679.5" y1="39" y2="39"/><polygon fill="none" points="1462.5,45,1466.5,49,1462.5,53,1458.5,49" style="stroke:#B38D22;stroke-width:1.0;"/><text fill="#000000" font-family="sans-serif" font-size="11" lengthAdjust="spacing" textLength="51" x="1471.5" y="53.2104">grid: Grid</text><polygon fill="none" points="1462.5,57.8047,1466.5,61.8047,1462.5,65.8047,1458.5,61.8047" style="stroke:#B38D22;stroke-width:1.0;"/><text fill="#000000" font-family="sans-serif" font-size="11" lengthAdjust="spacing" textLength="84" x="1471.5" y="66.0151">startX: number</text><polygon fill="none" points="1462.5,70.6094,1466.5,74.6094,1462.5,78.6094,1458.5,74.6094" style="stroke:#B38D22;stroke-width:1.0;"/><text fill="#000000" font-family="sans-serif" font-size="11" lengthAdjust="spacing" textLength="83" x="1471.5" y="78.8198">startY: number</text><polygon fill="none" points="1462.5,83.4141,1466.5,87.4141,1462.5,91.4141,1458.5,87.4141" style="stroke:#B38D22;stroke-width:1.0;"/><text fill="#000000" font-family="sans-serif" font-size="11" lengthAdjust="spacing" textLength="81" x="1471.5" y="91.6245">endX: number</text><polygon fill="none" points="1462.5,96.2188,1466.5,100.2188,1462.5,104.2188,1458.5,100.2188" style="stroke:#B38D22;stroke-width:1.0;"/><text fill="#000000" font-family="sans-serif" font-size="11" lengthAdjust="spacing" textLength="80" x="1471.5" y="104.4292">endY: number</text><line style="stroke:#A80036;stroke-width:1.5;" x1="1452.5" x2="1679.5" y1="111.0234" y2="111.0234"/><ellipse cx="1462.5" cy="122.0234" fill="#84BE84" rx="3" ry="3" style="stroke:#038048;stroke-width:1.0;"/><text fill="#000000" font-family="sans-serif" font-size="11" font-style="italic" lengthAdjust="spacing" textLength="130" x="1471.5" y="125.2339">solve(): Position[] | null</text><ellipse cx="1462.5" cy="134.8281" fill="#84BE84" rx="3" ry="3" style="stroke:#038048;stroke-width:1.0;"/><text fill="#000000" font-family="sans-serif" font-size="11" lengthAdjust="spacing" textLength="203" x="1471.5" y="138.0386">setStart(x: number, y: number): this</text><ellipse cx="1462.5" cy="147.6328" fill="#84BE84" rx="3" ry="3" style="stroke:#038048;stroke-width:1.0;"/><text fill="#000000" font-family="sans-serif" font-size="11" lengthAdjust="spacing" textLength="197" x="1471.5" y="150.8433">setEnd(x: number, y: number): this</text><!--MD5=[9e19d35ab029cd3f0d0e9c92c07766a9]
class OpenSetItem--><rect codeLine="36" fill="#FEFECE" filter="url(#f6r1z2rmmz4n6)" height="124.8281" id="OpenSetItem" style="stroke:#A80036;stroke-width:1.5;" width="221" x="57.5" y="223.5"/><ellipse cx="123.75" cy="239.5" fill="#B4A7E5" rx="11" ry="11" style="stroke:#A80036;stroke-width:1.0;"/><path d="M124.7031,236.2813 L126.4219,236.2813 C126.8125,236.2813 127,236.25 127.125,236.1719 C127.3906,236.0156 127.5313,235.7344 127.5313,235.4375 C127.5313,235.1719 127.4219,234.9063 127.1875,234.7344 C127.0156,234.625 126.875,234.5938 126.4219,234.5938 L121.2813,234.5938 C120.8438,234.5938 120.7188,234.6094 120.5625,234.7031 C120.3125,234.8594 120.1563,235.1563 120.1563,235.4375 C120.1563,235.7188 120.2969,235.9688 120.5156,236.1406 C120.6719,236.25 120.8594,236.2813 121.2813,236.2813 L123,236.2813 L123,242.7969 L121.2813,242.7969 C120.8438,242.7969 120.7188,242.8125 120.5625,242.9219 C120.3125,243.0781 120.1563,243.3594 120.1563,243.6563 C120.1563,243.9063 120.2969,244.1719 120.5156,244.3281 C120.6719,244.4531 120.875,244.5 121.2813,244.5 L126.4219,244.5 C127.1719,244.5 127.5313,244.2188 127.5313,243.6563 C127.5313,243.375 127.4219,243.125 127.1875,242.9531 C127.0156,242.8281 126.875,242.7969 126.4219,242.7969 L124.7031,242.7969 L124.7031,236.2813 Z " fill="#000000"/><text fill="#000000" font-family="sans-serif" font-size="12" font-style="italic" lengthAdjust="spacing" textLength="80" x="144.25" y="243.6543">OpenSetItem</text><line style="stroke:#A80036;stroke-width:1.5;" x1="58.5" x2="277.5" y1="255.5" y2="255.5"/><ellipse cx="68.5" cy="266.5" rx="3" ry="3" style="stroke:#038048;stroke-width:1.0;fill:none;"/><text fill="#000000" font-family="sans-serif" font-size="11" lengthAdjust="spacing" textLength="58" x="77.5" y="269.7104">x: number</text><ellipse cx="68.5" cy="279.3047" rx="3" ry="3" style="stroke:#038048;stroke-width:1.0;fill:none;"/><text fill="#000000" font-family="sans-serif" font-size="11" lengthAdjust="spacing" textLength="58" x="77.5" y="282.5151">y: number</text><ellipse cx="68.5" cy="292.1094" rx="3" ry="3" style="stroke:#038048;stroke-width:1.0;fill:none;"/><text fill="#000000" font-family="sans-serif" font-size="11" lengthAdjust="spacing" textLength="83" x="77.5" y="295.3198">gCost: number</text><ellipse cx="68.5" cy="304.9141" rx="3" ry="3" style="stroke:#038048;stroke-width:1.0;fill:none;"/><text fill="#000000" font-family="sans-serif" font-size="11" lengthAdjust="spacing" textLength="83" x="77.5" y="308.1245">hCost: number</text><ellipse cx="68.5" cy="317.7188" rx="3" ry="3" style="stroke:#038048;stroke-width:1.0;fill:none;"/><text fill="#000000" font-family="sans-serif" font-size="11" lengthAdjust="spacing" textLength="195" x="77.5" y="320.9292">pointer: { x: number; y: number; }</text><ellipse cx="68.5" cy="330.5234" rx="3" ry="3" style="stroke:#038048;stroke-width:1.0;fill:none;"/><text fill="#000000" font-family="sans-serif" font-size="11" lengthAdjust="spacing" textLength="104" x="77.5" y="333.7339">explored: boolean</text><line style="stroke:#A80036;stroke-width:1.5;" x1="58.5" x2="277.5" y1="340.3281" y2="340.3281"/><!--MD5=[bd1f0e0ce4b623a7fb4c2c4371a7aa0a]
class OpenSet--><rect codeLine="44" fill="#FEFECE" filter="url(#f6r1z2rmmz4n6)" height="124.8281" id="OpenSet" style="stroke:#A80036;stroke-width:1.5;" width="350" x="314" y="223.5"/><ellipse cx="458.25" cy="239.5" fill="#ADD1B2" rx="11" ry="11" style="stroke:#A80036;stroke-width:1.0;"/><path d="M460.5938,235.1719 C459.6563,234.7344 459.0625,234.5938 458.1875,234.5938 C455.5625,234.5938 453.5625,236.6719 453.5625,239.3906 L453.5625,240.5156 C453.5625,243.0938 455.6719,244.9844 458.5625,244.9844 C459.7813,244.9844 460.9375,244.6875 461.6875,244.1406 C462.2656,243.7344 462.5938,243.2813 462.5938,242.8906 C462.5938,242.4375 462.2031,242.0469 461.7344,242.0469 C461.5156,242.0469 461.3125,242.125 461.125,242.3125 C460.6719,242.7969 460.6719,242.7969 460.4844,242.8906 C460.0625,243.1563 459.375,243.2813 458.6094,243.2813 C456.5625,243.2813 455.2656,242.1875 455.2656,240.4844 L455.2656,239.3906 C455.2656,237.6094 456.5156,236.2969 458.25,236.2969 C458.8281,236.2969 459.4375,236.4531 459.9063,236.7031 C460.3906,236.9844 460.5625,237.2031 460.6563,237.6094 C460.7188,238.0156 460.75,238.1406 460.8906,238.2656 C461.0313,238.4063 461.2656,238.5156 461.4844,238.5156 C461.75,238.5156 462.0156,238.375 462.1875,238.1563 C462.2969,238 462.3281,237.8125 462.3281,237.3906 L462.3281,235.9688 C462.3281,235.5313 462.3125,235.4063 462.2188,235.25 C462.0625,234.9844 461.7813,234.8438 461.4844,234.8438 C461.1875,234.8438 460.9844,234.9375 460.7656,235.25 L460.5938,235.1719 Z " fill="#000000"/><text fill="#000000" font-family="sans-serif" font-size="12" lengthAdjust="spacing" textLength="53" x="478.75" y="243.6543">OpenSet</text><line style="stroke:#A80036;stroke-width:1.5;" x1="315" x2="663" y1="255.5" y2="255.5"/><rect fill="none" height="6" style="stroke:#C82930;stroke-width:1.0;" width="6" x="322" y="263.5"/><text fill="#000000" font-family="sans-serif" font-size="11" lengthAdjust="spacing" textLength="188" x="334" y="269.7104">map: Map&lt;string, OpenSetItem&gt;</text><line style="stroke:#A80036;stroke-width:1.5;" x1="315" x2="663" y1="276.3047" y2="276.3047"/><ellipse cx="325" cy="287.3047" fill="#84BE84" rx="3" ry="3" style="stroke:#038048;stroke-width:1.0;"/><text fill="#000000" font-family="sans-serif" font-size="11" lengthAdjust="spacing" textLength="234" x="334" y="290.5151">get(x: number, y: number): OpenSetItem</text><ellipse cx="325" cy="300.1094" fill="#84BE84" rx="3" ry="3" style="stroke:#038048;stroke-width:1.0;"/><text fill="#000000" font-family="sans-serif" font-size="11" lengthAdjust="spacing" textLength="324" x="334" y="303.3198">set(x: number, y: number, item: OpenSetItem): OpenSet</text><ellipse cx="325" cy="312.9141" fill="#84BE84" rx="3" ry="3" style="stroke:#038048;stroke-width:1.0;"/><text fill="#000000" font-family="sans-serif" font-size="11" lengthAdjust="spacing" textLength="233" x="334" y="316.1245">values(): IterableIterator&lt;OpenSetItem&gt;</text><ellipse cx="325" cy="325.7188" fill="#84BE84" rx="3" ry="3" style="stroke:#038048;stroke-width:1.0;"/><text fill="#000000" font-family="sans-serif" font-size="11" lengthAdjust="spacing" textLength="204" x="334" y="328.9292">has(x: number, y: number): boolean</text><rect fill="#F24D5C" height="6" style="stroke:#C82930;stroke-width:1.0;" width="6" x="322" y="335.5234"/><text fill="#000000" font-family="sans-serif" font-size="11" lengthAdjust="spacing" text-decoration="underline" textLength="198" x="334" y="341.7339">getId(x: number, y: number): string</text><!--MD5=[9613924afaa425a65cc3b882f86e0b0f]
class AStar--><rect codeLine="52" fill="#FEFECE" filter="url(#f6r1z2rmmz4n6)" height="137.6328" id="AStar" style="stroke:#A80036;stroke-width:1.5;" width="359" x="1386.5" y="217"/><ellipse cx="1545.75" cy="233" fill="#ADD1B2" rx="11" ry="11" style="stroke:#A80036;stroke-width:1.0;"/><path d="M1548.0938,228.6719 C1547.1563,228.2344 1546.5625,228.0938 1545.6875,228.0938 C1543.0625,228.0938 1541.0625,230.1719 1541.0625,232.8906 L1541.0625,234.0156 C1541.0625,236.5938 1543.1719,238.4844 1546.0625,238.4844 C1547.2813,238.4844 1548.4375,238.1875 1549.1875,237.6406 C1549.7656,237.2344 1550.0938,236.7813 1550.0938,236.3906 C1550.0938,235.9375 1549.7031,235.5469 1549.2344,235.5469 C1549.0156,235.5469 1548.8125,235.625 1548.625,235.8125 C1548.1719,236.2969 1548.1719,236.2969 1547.9844,236.3906 C1547.5625,236.6563 1546.875,236.7813 1546.1094,236.7813 C1544.0625,236.7813 1542.7656,235.6875 1542.7656,233.9844 L1542.7656,232.8906 C1542.7656,231.1094 1544.0156,229.7969 1545.75,229.7969 C1546.3281,229.7969 1546.9375,229.9531 1547.4063,230.2031 C1547.8906,230.4844 1548.0625,230.7031 1548.1563,231.1094 C1548.2188,231.5156 1548.25,231.6406 1548.3906,231.7656 C1548.5313,231.9063 1548.7656,232.0156 1548.9844,232.0156 C1549.25,232.0156 1549.5156,231.875 1549.6875,231.6563 C1549.7969,231.5 1549.8281,231.3125 1549.8281,230.8906 L1549.8281,229.4688 C1549.8281,229.0313 1549.8125,228.9063 1549.7188,228.75 C1549.5625,228.4844 1549.2813,228.3438 1548.9844,228.3438 C1548.6875,228.3438 1548.4844,228.4375 1548.2656,228.75 L1548.0938,228.6719 Z " fill="#000000"/><text fill="#000000" font-family="sans-serif" font-size="12" lengthAdjust="spacing" textLength="32" x="1566.25" y="237.1543">AStar</text><line style="stroke:#A80036;stroke-width:1.5;" x1="1387.5" x2="1744.5" y1="249" y2="249"/><rect fill="none" height="6" style="stroke:#C82930;stroke-width:1.0;" width="6" x="1394.5" y="257"/><text fill="#000000" font-family="sans-serif" font-size="11" lengthAdjust="spacing" textLength="138" x="1406.5" y="263.2104">openSet: OpenSet | null</text><line style="stroke:#A80036;stroke-width:1.5;" x1="1387.5" x2="1744.5" y1="269.8047" y2="269.8047"/><ellipse cx="1397.5" cy="280.8047" fill="#84BE84" rx="3" ry="3" style="stroke:#038048;stroke-width:1.0;"/><text fill="#000000" font-family="sans-serif" font-size="11" lengthAdjust="spacing" textLength="128" x="1406.5" y="284.0151">solve(): Position[] | null</text><rect fill="#F24D5C" height="6" style="stroke:#C82930;stroke-width:1.0;" width="6" x="1394.5" y="290.6094"/><text fill="#000000" font-family="sans-serif" font-size="11" lengthAdjust="spacing" textLength="268" x="1406.5" y="296.8198">getNodeWithLowestFCost(): OpenSetItem | null</text><rect fill="#F24D5C" height="6" style="stroke:#C82930;stroke-width:1.0;" width="6" x="1394.5" y="303.4141"/><text fill="#000000" font-family="sans-serif" font-size="11" lengthAdjust="spacing" textLength="273" x="1406.5" y="309.6245">pathTraceBack(x: number, y: number): Position[]</text><rect fill="#F24D5C" height="6" style="stroke:#C82930;stroke-width:1.0;" width="6" x="1394.5" y="316.2188"/><text fill="#000000" font-family="sans-serif" font-size="11" lengthAdjust="spacing" textLength="248" x="1406.5" y="322.4292">openNeighbors(x: number, y: number): void</text><rect fill="#F24D5C" height="6" style="stroke:#C82930;stroke-width:1.0;" width="6" x="1394.5" y="329.0234"/><text fill="#000000" font-family="sans-serif" font-size="11" lengthAdjust="spacing" textLength="236" x="1406.5" y="335.2339">heuristics(x: number, y: number): number</text><rect fill="#F24D5C" height="6" style="stroke:#C82930;stroke-width:1.0;" width="6" x="1394.5" y="341.8281"/><text fill="#000000" font-family="sans-serif" font-size="11" lengthAdjust="spacing" textLength="333" x="1406.5" y="348.0386">getFCost(__0: { hCost: number; gCost: number; }): number</text><!--MD5=[3d1d36730a126c6e08594e7f95ce7da7]
class Grass--><rect codeLine="61" fill="#FEFECE" filter="url(#f6r1z2rmmz4n6)" height="86.4141" id="Grass" style="stroke:#A80036;stroke-width:1.5;" width="135" x="876.5" y="243"/><ellipse cx="922.25" cy="259" fill="#ADD1B2" rx="11" ry="11" style="stroke:#A80036;stroke-width:1.0;"/><path d="M924.5938,254.6719 C923.6563,254.2344 923.0625,254.0938 922.1875,254.0938 C919.5625,254.0938 917.5625,256.1719 917.5625,258.8906 L917.5625,260.0156 C917.5625,262.5938 919.6719,264.4844 922.5625,264.4844 C923.7813,264.4844 924.9375,264.1875 925.6875,263.6406 C926.2656,263.2344 926.5938,262.7813 926.5938,262.3906 C926.5938,261.9375 926.2031,261.5469 925.7344,261.5469 C925.5156,261.5469 925.3125,261.625 925.125,261.8125 C924.6719,262.2969 924.6719,262.2969 924.4844,262.3906 C924.0625,262.6563 923.375,262.7813 922.6094,262.7813 C920.5625,262.7813 919.2656,261.6875 919.2656,259.9844 L919.2656,258.8906 C919.2656,257.1094 920.5156,255.7969 922.25,255.7969 C922.8281,255.7969 923.4375,255.9531 923.9063,256.2031 C924.3906,256.4844 924.5625,256.7031 924.6563,257.1094 C924.7188,257.5156 924.75,257.6406 924.8906,257.7656 C925.0313,257.9063 925.2656,258.0156 925.4844,258.0156 C925.75,258.0156 926.0156,257.875 926.1875,257.6563 C926.2969,257.5 926.3281,257.3125 926.3281,256.8906 L926.3281,255.4688 C926.3281,255.0313 926.3125,254.9063 926.2188,254.75 C926.0625,254.4844 925.7813,254.3438 925.4844,254.3438 C925.1875,254.3438 924.9844,254.4375 924.7656,254.75 L924.5938,254.6719 Z " fill="#000000"/><text fill="#000000" font-family="sans-serif" font-size="12" lengthAdjust="spacing" textLength="35" x="942.75" y="263.1543">Grass</text><line style="stroke:#A80036;stroke-width:1.5;" x1="877.5" x2="1010.5" y1="275" y2="275"/><ellipse cx="887.5" cy="286" rx="3" ry="3" style="stroke:#038048;stroke-width:1.0;fill:none;"/><text fill="#000000" font-family="sans-serif" font-size="11" lengthAdjust="spacing" textLength="109" x="896.5" y="289.2104">isBlocking: boolean</text><ellipse cx="887.5" cy="298.8047" rx="3" ry="3" style="stroke:#038048;stroke-width:1.0;fill:none;"/><text fill="#000000" font-family="sans-serif" font-size="11" lengthAdjust="spacing" textLength="98" x="896.5" y="302.0151">modifier: number</text><ellipse cx="887.5" cy="311.6094" rx="3" ry="3" style="stroke:#038048;stroke-width:1.0;fill:none;"/><text fill="#000000" font-family="sans-serif" font-size="11" lengthAdjust="spacing" textLength="65" x="896.5" y="314.8198">color: string</text><line style="stroke:#A80036;stroke-width:1.5;" x1="877.5" x2="1010.5" y1="321.4141" y2="321.4141"/><!--MD5=[fbcb1dceea9c260248071806a7ce1500]
class Road--><rect codeLine="66" fill="#FEFECE" filter="url(#f6r1z2rmmz4n6)" height="86.4141" id="Road" style="stroke:#A80036;stroke-width:1.5;" width="135" x="1046.5" y="243"/><ellipse cx="1094.75" cy="259" fill="#ADD1B2" rx="11" ry="11" style="stroke:#A80036;stroke-width:1.0;"/><path d="M1097.0938,254.6719 C1096.1563,254.2344 1095.5625,254.0938 1094.6875,254.0938 C1092.0625,254.0938 1090.0625,256.1719 1090.0625,258.8906 L1090.0625,260.0156 C1090.0625,262.5938 1092.1719,264.4844 1095.0625,264.4844 C1096.2813,264.4844 1097.4375,264.1875 1098.1875,263.6406 C1098.7656,263.2344 1099.0938,262.7813 1099.0938,262.3906 C1099.0938,261.9375 1098.7031,261.5469 1098.2344,261.5469 C1098.0156,261.5469 1097.8125,261.625 1097.625,261.8125 C1097.1719,262.2969 1097.1719,262.2969 1096.9844,262.3906 C1096.5625,262.6563 1095.875,262.7813 1095.1094,262.7813 C1093.0625,262.7813 1091.7656,261.6875 1091.7656,259.9844 L1091.7656,258.8906 C1091.7656,257.1094 1093.0156,255.7969 1094.75,255.7969 C1095.3281,255.7969 1095.9375,255.9531 1096.4063,256.2031 C1096.8906,256.4844 1097.0625,256.7031 1097.1563,257.1094 C1097.2188,257.5156 1097.25,257.6406 1097.3906,257.7656 C1097.5313,257.9063 1097.7656,258.0156 1097.9844,258.0156 C1098.25,258.0156 1098.5156,257.875 1098.6875,257.6563 C1098.7969,257.5 1098.8281,257.3125 1098.8281,256.8906 L1098.8281,255.4688 C1098.8281,255.0313 1098.8125,254.9063 1098.7188,254.75 C1098.5625,254.4844 1098.2813,254.3438 1097.9844,254.3438 C1097.6875,254.3438 1097.4844,254.4375 1097.2656,254.75 L1097.0938,254.6719 Z " fill="#000000"/><text fill="#000000" font-family="sans-serif" font-size="12" lengthAdjust="spacing" textLength="30" x="1115.25" y="263.1543">Road</text><line style="stroke:#A80036;stroke-width:1.5;" x1="1047.5" x2="1180.5" y1="275" y2="275"/><ellipse cx="1057.5" cy="286" rx="3" ry="3" style="stroke:#038048;stroke-width:1.0;fill:none;"/><text fill="#000000" font-family="sans-serif" font-size="11" lengthAdjust="spacing" textLength="109" x="1066.5" y="289.2104">isBlocking: boolean</text><ellipse cx="1057.5" cy="298.8047" rx="3" ry="3" style="stroke:#038048;stroke-width:1.0;fill:none;"/><text fill="#000000" font-family="sans-serif" font-size="11" lengthAdjust="spacing" textLength="98" x="1066.5" y="302.0151">modifier: number</text><ellipse cx="1057.5" cy="311.6094" rx="3" ry="3" style="stroke:#038048;stroke-width:1.0;fill:none;"/><text fill="#000000" font-family="sans-serif" font-size="11" lengthAdjust="spacing" textLength="65" x="1066.5" y="314.8198">color: string</text><line style="stroke:#A80036;stroke-width:1.5;" x1="1047.5" x2="1180.5" y1="321.4141" y2="321.4141"/><!--MD5=[d293d6769e6c111f745adb643d5e33dd]
class Stone--><rect codeLine="71" fill="#FEFECE" filter="url(#f6r1z2rmmz4n6)" height="86.4141" id="Stone" style="stroke:#A80036;stroke-width:1.5;" width="135" x="1216.5" y="243"/><ellipse cx="1262.25" cy="259" fill="#ADD1B2" rx="11" ry="11" style="stroke:#A80036;stroke-width:1.0;"/><path d="M1264.5938,254.6719 C1263.6563,254.2344 1263.0625,254.0938 1262.1875,254.0938 C1259.5625,254.0938 1257.5625,256.1719 1257.5625,258.8906 L1257.5625,260.0156 C1257.5625,262.5938 1259.6719,264.4844 1262.5625,264.4844 C1263.7813,264.4844 1264.9375,264.1875 1265.6875,263.6406 C1266.2656,263.2344 1266.5938,262.7813 1266.5938,262.3906 C1266.5938,261.9375 1266.2031,261.5469 1265.7344,261.5469 C1265.5156,261.5469 1265.3125,261.625 1265.125,261.8125 C1264.6719,262.2969 1264.6719,262.2969 1264.4844,262.3906 C1264.0625,262.6563 1263.375,262.7813 1262.6094,262.7813 C1260.5625,262.7813 1259.2656,261.6875 1259.2656,259.9844 L1259.2656,258.8906 C1259.2656,257.1094 1260.5156,255.7969 1262.25,255.7969 C1262.8281,255.7969 1263.4375,255.9531 1263.9063,256.2031 C1264.3906,256.4844 1264.5625,256.7031 1264.6563,257.1094 C1264.7188,257.5156 1264.75,257.6406 1264.8906,257.7656 C1265.0313,257.9063 1265.2656,258.0156 1265.4844,258.0156 C1265.75,258.0156 1266.0156,257.875 1266.1875,257.6563 C1266.2969,257.5 1266.3281,257.3125 1266.3281,256.8906 L1266.3281,255.4688 C1266.3281,255.0313 1266.3125,254.9063 1266.2188,254.75 C1266.0625,254.4844 1265.7813,254.3438 1265.4844,254.3438 C1265.1875,254.3438 1264.9844,254.4375 1264.7656,254.75 L1264.5938,254.6719 Z " fill="#000000"/><text fill="#000000" font-family="sans-serif" font-size="12" lengthAdjust="spacing" textLength="35" x="1282.75" y="263.1543">Stone</text><line style="stroke:#A80036;stroke-width:1.5;" x1="1217.5" x2="1350.5" y1="275" y2="275"/><ellipse cx="1227.5" cy="286" rx="3" ry="3" style="stroke:#038048;stroke-width:1.0;fill:none;"/><text fill="#000000" font-family="sans-serif" font-size="11" lengthAdjust="spacing" textLength="109" x="1236.5" y="289.2104">isBlocking: boolean</text><ellipse cx="1227.5" cy="298.8047" rx="3" ry="3" style="stroke:#038048;stroke-width:1.0;fill:none;"/><text fill="#000000" font-family="sans-serif" font-size="11" lengthAdjust="spacing" textLength="98" x="1236.5" y="302.0151">modifier: number</text><ellipse cx="1227.5" cy="311.6094" rx="3" ry="3" style="stroke:#038048;stroke-width:1.0;fill:none;"/><text fill="#000000" font-family="sans-serif" font-size="11" lengthAdjust="spacing" textLength="65" x="1236.5" y="314.8198">color: string</text><line style="stroke:#A80036;stroke-width:1.5;" x1="1217.5" x2="1350.5" y1="321.4141" y2="321.4141"/><!--MD5=[3919236d46fb87b7be2547f9161cdedb]
reverse link Error to OutOfBoundsError--><path d="M770,126.373 C770,167.854 770,228.824 770,261.788 " fill="none" id="Error-backto-OutOfBoundsError" style="stroke:#A80036;stroke-width:1.0;"/><polygon fill="none" points="763,126.172,770,106.172,777,126.172,763,126.172" style="stroke:#A80036;stroke-width:1.0;"/><!--MD5=[397c5946babdc1a30e2857717181408d]
reverse link PathFinding to AStar--><path d="M1566,177.186 C1566,190.603 1566,204.182 1566,216.968 " fill="none" id="PathFinding-backto-AStar" style="stroke:#A80036;stroke-width:1.0;"/><polygon fill="none" points="1559,177.07,1566,157.07,1573,177.07,1559,177.07" style="stroke:#A80036;stroke-width:1.0;"/><!--MD5=[d49d35d6135f93d043bb00c9041b4961]
reverse link Tile to Grass--><path d="M1065.12,141.084 C1037.81,173.528 1004.4,213.23 979.591,242.71 " fill="none" id="Tile-backto-Grass" style="stroke:#A80036;stroke-width:1.0;"/><polygon fill="none" points="1060.13,136.141,1078.36,125.346,1070.84,145.155,1060.13,136.141" style="stroke:#A80036;stroke-width:1.0;"/><!--MD5=[121cf9efca67fb0e16bdcb4d5a1b6c72]
reverse link Tile to Road--><path d="M1114,145.572 C1114,177.133 1114,214.576 1114,242.71 " fill="none" id="Tile-backto-Road" style="stroke:#A80036;stroke-width:1.0;"/><polygon fill="none" points="1107,145.346,1114,125.346,1121,145.346,1107,145.346" style="stroke:#A80036;stroke-width:1.0;"/><!--MD5=[2b3618186a48c103dbb69ff3854817e2]
reverse link Tile to Stone--><path d="M1162.88,141.084 C1190.19,173.528 1223.6,213.23 1248.41,242.71 " fill="none" id="Tile-backto-Stone" style="stroke:#A80036;stroke-width:1.0;"/><polygon fill="none" points="1157.16,145.155,1149.64,125.346,1167.87,136.141,1157.16,145.155" style="stroke:#A80036;stroke-width:1.0;"/><!--MD5=[4aa5a72731f562277e38b80063593a13]
link Grid to GridLoop--><!--MD5=[2734df85e87ea04eb13f3c7a390fdffc]
link Grid to OpenSetItem--><!--MD5=[c88f6eb0e4cfb3e1d59b33f55d364713]
link OpenSetItem to OpenSet--><!--MD5=[87f205e6c186e9bcd135258fd2ca0160]
@startuml
class OutOfBoundsError extends Error
abstract class Tile {
    +{abstract} isBlocking: boolean
    +{abstract} modifier: number
    +{abstract} color: string
}
class Grid {
    +width: number
    +height: number
    #tiles: Tile[]
    +fill(tile: Tile): this
    +set(x: number, y: number, tile: Tile): this
    +get(x: number, y: number): Tile
    -throwOutsideOfBounds(x: number, y: number): void
}
class GridLoop {
    -startX: number
    -startY: number
    -endX: number
    -endY: number
    -skips: Record<string, boolean>
    +setStart(x: number, y: number): this
    +setEnd(x: number, y: number): this
    +skip(x: number, y: number): this
}
abstract class PathFinding {
    #grid: Grid
    #startX: number
    #startY: number
    #endX: number
    #endY: number
    +{abstract} solve(): Position[] | null
    +setStart(x: number, y: number): this
    +setEnd(x: number, y: number): this
}
interface OpenSetItem {
    +x: number
    +y: number
    +gCost: number
    +hCost: number
    +pointer: { x: number; y: number; }
    +explored: boolean
}
class OpenSet {
    -map: Map<string, OpenSetItem>
    +get(x: number, y: number): OpenSetItem
    +set(x: number, y: number, item: OpenSetItem): OpenSet
    +values(): IterableIterator<OpenSetItem>
    +has(x: number, y: number): boolean
    -{static} getId(x: number, y: number): string
}
class AStar extends PathFinding {
    -openSet: OpenSet | null
    +solve(): Position[] | null
    -getNodeWithLowestFCost(): OpenSetItem | null
    -pathTraceBack(x: number, y: number): Position[]
    -openNeighbors(x: number, y: number): void
    -heuristics(x: number, y: number): number
    -getFCost(__0: { hCost: number; gCost: number; }): number
}
class Grass extends Tile {
    +isBlocking: boolean
    +modifier: number
    +color: string
}
class Road extends Tile {
    +isBlocking: boolean
    +modifier: number
    +color: string
}
class Stone extends Tile {
    +isBlocking: boolean
    +modifier: number
    +color: string
}
@enduml

PlantUML version 1.2022.1beta9(Unknown compile time)
(GPL source distribution)
Java Runtime: Java(TM) SE Runtime Environment
JVM: Java HotSpot(TM) 64-Bit Server VM
Default Encoding: UTF-8
Language: en
Country: US
--></g></svg>